# xmcd CD database file
#
# Track frame offsets:
#	150
#	18131
#	36138
#	52130
#	79569
#	93567
#	118593
#	139209
#	155115
#	170627
#	191134
#	211189
#	235231
#	262088
#	284020
#
# Disc length: 4219 seconds
#
# Revision: 0
# Processed by: cddbd v1.5.2PL0 Copyright (c) Steve Scherf et al.
# Submitted via: CDex 1.77
#
DISCID=de10790f
DTITLE=Steve Milton Band - Once In A Lifetime
DYEAR=1999
DGENRE=Blues
TTITLE0=Talk To Me Baby
TTITLE1=Thrill Is Gone
TTITLE2=All Your Love
TTITLE3=Still Got The Blues
TTITLE4=Walkin' By Myself
TTITLE5=Hoochie Coochie Man
TTITLE6=Come Together
TTITLE7=Sharp Dressed Man
TTITLE8=Payin' The Cost To Be The Boss
TTITLE9=Once In A Lifetime
TTITLE10=The Hunter
TTITLE11=Feel Like Makin' Love
TTITLE12=Workin' On It
TTITLE13=Need Your Love So Bad
TTITLE14=Born To Be Wild
EXTD=YEAR: 1999
EXTT0=
EXTT1=
EXTT2=
EXTT3=
EXTT4=
EXTT5=
EXTT6=
EXTT7=
EXTT8=
EXTT9=
EXTT10=
EXTT11=
EXTT12=
EXTT13=
EXTT14=
PLAYORDER=
